<svg xmlns="http://www.w3.org/2000/svg" viewBox="0 0 24 24">
  <!-- Airtable blocks logo -->
  <path d="M11.138.919L1.97 4.498a1.056 1.056 0 0 0 .003 1.963l9.197 3.533a3.207 3.207 0 0 0 2.285 0l9.197-3.533a1.056 1.056 0 0 0 .003-1.963L13.487.92a3.207 3.207 0 0 0-2.35 0z" fill="#FCB400"/>
  <path d="M12.75 13.154v8.982a.956.956 0 0 0 1.294.894l10.03-3.965a.956.956 0 0 0 .619-.893V9.19a.956.956 0 0 0-1.294-.893l-10.03 3.964a.956.956 0 0 0-.619.893z" fill="#18BFFF"/>
  <path d="M10.25 13.154v8.982a.956.956 0 0 1-1.294.894L-.074 19.065A.956.956 0 0 1-.693 18.172V9.19a.956.956 0 0 1 1.294-.893l10.03 3.964a.956.956 0 0 1 .619.893z" fill="#F82B60"/>
</svg>
