<svg xmlns="http://www.w3.org/2000/svg" viewBox="0 0 24 24">
  <path d="M20.625 5.4h-5.25v-.9C15.375 2.013 13.362 0 10.875 0S6.375 2.013 6.375 4.5v.9H1.125A1.125 1.125 0 0 0 0 6.525V17.1a1.125 1.125 0 0 0 1.125 1.125h5.25l4.5 4.5 4.5-4.5h5.25A1.125 1.125 0 0 0 21.75 17.1V6.525A1.125 1.125 0 0 0 20.625 5.4z" fill="none"/>
  <!-- Teams T icon -->
  <path d="M14 3.5a3.5 3.5 0 1 1 0 7 3.5 3.5 0 0 1 0-7z" fill="#5059C9"/>
  <path d="M18 9h3a1 1 0 0 1 1 1v5a3 3 0 0 1-3 3h-.5A4.5 4.5 0 0 0 20 14v-4h-2V9z" fill="#5059C9"/>
  <path d="M9 7.5A3.5 3.5 0 1 0 9 .5 3.5 3.5 0 0 0 9 7.5z" fill="#7B83EB"/>
  <path d="M15 9H3a1 1 0 0 0-1 1v7a5 5 0 0 0 5 5h4a5 5 0 0 0 5-5v-7a1 1 0 0 0-1-1z" fill="#7B83EB"/>
</svg>
