<svg xmlns="http://www.w3.org/2000/svg" viewBox="0 0 24 24">
  <!-- OneDrive cloud shapes -->
  <path d="M9.5 12.5L14.7 9.1A6.5 6.5 0 0 1 21 12.5c0 .17-.01.33-.02.5H9.5z" fill="#0364B8"/>
  <path d="M5.6 13.7C5.35 13.26 5.2 12.76 5.2 12.22a3.6 3.6 0 0 1 5.94-2.75l3.56-2.21A6.3 6.3 0 0 0 5.2 12.22c0 .28.02.55.05.82L5.6 13.7z" fill="#0078D4"/>
  <path d="M9.5 12.5c0-.08 0-.17.01-.25A5 5 0 0 0 0 16.5a4 4 0 0 0 4 4h15.5A3.5 3.5 0 0 0 23 17a3.5 3.5 0 0 0-2.02-3.15 6.5 6.5 0 0 1-.48.65H9.5z" fill="#1490DF"/>
  <path d="M20.5 13.5A3.5 3.5 0 0 0 23 17a3.5 3.5 0 0 0-3.5-3.5z" fill="#28A8E8"/>
</svg>
